# MagicaVoxel @ Ephtracy

# group
o 

# material
mtllib Ladder.mtl
usemtl palette

# normals
vn -1 0 0
vn 1 0 0
vn 0 0 1
vn 0 0 -1
vn 0 -1 0
vn 0 1 0

# texcoords
vt 0.947266 0.5
vt 0.955078 0.5

# verts
v -4 0 2.2
v -4 0 2.1
v -4 0 0.4
v -4 15 0.4
v -4 15 -2.4
v -4 15.9 2.1
v -4 15.9 -2.4
v -4 16 2.2
v -4 16 -2.4
v -3.8 0 2.4
v -3.8 0 2.2
v -3.8 16 2.4
v -3.8 16 2.2
v 3 0 2.4
v 3 0 2.2
v 3 0 0.4
v 3 0.7 1.7
v 3 0.7 1.1
v 3 1.3 1.7
v 3 1.3 1.1
v 3 2.7 1.7
v 3 2.7 1.1
v 3 3.3 1.7
v 3 3.3 1.1
v 3 4.7 1.7
v 3 4.7 1.1
v 3 5.3 1.7
v 3 5.3 1.1
v 3 6.7 1.7
v 3 6.7 1.1
v 3 7.3 1.7
v 3 7.3 1.1
v 3 8.7 1.7
v 3 8.7 1.1
v 3 9.3 1.7
v 3 9.3 1.1
v 3 10.7 1.7
v 3 10.7 1.1
v 3 11.3 1.7
v 3 11.3 1.1
v 3 12.7 1.7
v 3 12.7 1.1
v 3 13.3 1.7
v 3 13.3 1.1
v 3 14.7 1.7
v 3 14.7 1.1
v 3 15 0.4
v 3 15 -2.4
v 3 15.3 1.7
v 3 15.3 1.1
v 3 16 2.4
v 3 16 2.2
v 3 16 -2.4
v -3 0 2.4
v -3 0 0.4
v -3 0.1 2.4
v -3 0.1 2.3
v -3 0.7 1.7
v -3 0.7 1.1
v -3 1.3 1.7
v -3 1.3 1.1
v -3 2.7 1.7
v -3 2.7 1.1
v -3 3.3 1.7
v -3 3.3 1.1
v -3 4.7 1.7
v -3 4.7 1.1
v -3 5.3 1.7
v -3 5.3 1.1
v -3 6.7 1.7
v -3 6.7 1.1
v -3 7.3 1.7
v -3 7.3 1.1
v -3 8.7 1.7
v -3 8.7 1.1
v -3 9.3 1.7
v -3 9.3 1.1
v -3 10.7 1.7
v -3 10.7 1.1
v -3 11.3 1.7
v -3 11.3 1.1
v -3 12.7 1.7
v -3 12.7 1.1
v -3 13.3 1.7
v -3 13.3 1.1
v -3 14.7 1.7
v -3 14.7 1.1
v -3 15 0.4
v -3 15 -2.4
v -3 15.3 1.7
v -3 15.3 1.1
v -3 15.9 2.3
v -3 15.9 -2.4
v -3 16 2.4
v -3 16 -2.4
v 3.8 0 2.4
v 3.8 0 2.2
v 3.8 16 2.4
v 3.8 16 2.2
v 4 0 2.2
v 4 0 2.1
v 4 0 0.4
v 4 15 0.4
v 4 15 -2.4
v 4 16 2.2
v 4 16 2.1
v 4 16 -2.4
v -3.8 0 2.4
v -3.8 16 2.4
v -3.7 0 2.4
v -3.7 15.9 2.4
v -3.1 0.1 2.4
v -3.1 15.9 2.4
v -3 0 2.4
v -3 0.1 2.4
v -3 16 2.4
v 3 0 2.4
v 3 16 2.4
v 3.1 0 2.4
v 3.1 15.9 2.4
v 3.7 0 2.4
v 3.7 15.9 2.4
v 3.8 0 2.4
v 3.8 16 2.4
v -4 0 2.2
v -4 16 2.2
v -3.8 0 2.2
v -3.8 16 2.2
v 3.8 0 2.2
v 3.8 16 2.2
v 4 0 2.2
v 4 16 2.2
v -3 0.7 1.7
v -3 1.3 1.7
v -3 2.7 1.7
v -3 3.3 1.7
v -3 4.7 1.7
v -3 5.3 1.7
v -3 6.7 1.7
v -3 7.3 1.7
v -3 8.7 1.7
v -3 9.3 1.7
v -3 10.7 1.7
v -3 11.3 1.7
v -3 12.7 1.7
v -3 13.3 1.7
v -3 14.7 1.7
v -3 15.3 1.7
v 3 0.7 1.7
v 3 1.3 1.7
v 3 2.7 1.7
v 3 3.3 1.7
v 3 4.7 1.7
v 3 5.3 1.7
v 3 6.7 1.7
v 3 7.3 1.7
v 3 8.7 1.7
v 3 9.3 1.7
v 3 10.7 1.7
v 3 11.3 1.7
v 3 12.7 1.7
v 3 13.3 1.7
v 3 14.7 1.7
v 3 15.3 1.7
v -3 0.7 1.1
v -3 1.3 1.1
v -3 2.7 1.1
v -3 3.3 1.1
v -3 4.7 1.1
v -3 5.3 1.1
v -3 6.7 1.1
v -3 7.3 1.1
v -3 8.7 1.1
v -3 9.3 1.1
v -3 10.7 1.1
v -3 11.3 1.1
v -3 12.7 1.1
v -3 13.3 1.1
v -3 14.7 1.1
v -3 15.3 1.1
v 3 0.7 1.1
v 3 1.3 1.1
v 3 2.7 1.1
v 3 3.3 1.1
v 3 4.7 1.1
v 3 5.3 1.1
v 3 6.7 1.1
v 3 7.3 1.1
v 3 8.7 1.1
v 3 9.3 1.1
v 3 10.7 1.1
v 3 11.3 1.1
v 3 12.7 1.1
v 3 13.3 1.1
v 3 14.7 1.1
v 3 15.3 1.1
v -4 0 0.4
v -4 15 0.4
v -3 0 0.4
v -3 15 0.4
v 3 0 0.4
v 3 15 0.4
v 4 0 0.4
v 4 15 0.4
v -4 15 -2.4
v -4 15.9 -2.4
v -4 16 -2.4
v -3.9 15.9 -2.4
v -3.9 16 -2.4
v -3.1 15.9 -2.4
v -3.1 16 -2.4
v -3 15 -2.4
v -3 15.9 -2.4
v -3 16 -2.4
v 3 15 -2.4
v 3 16 -2.4
v 4 15 -2.4
v 4 16 -2.4
v -3.8 0 2.4
v -3.7 0 2.4
v -3 0 2.4
v 3 0 2.4
v 3.1 0 2.4
v 3.7 0 2.4
v 3.8 0 2.4
v -4 0 2.2
v -3.8 0 2.2
v 3 0 2.2
v 3.1 0 2.2
v 3.8 0 2.2
v 4 0 2.2
v -4 0 2.1
v -3.7 0 2.1
v 3.7 0 2.1
v 4 0 2.1
v -4 0 0.4
v -3 0 0.4
v 3 0 0.4
v 4 0 0.4
v -3 0.7 1.7
v 3 0.7 1.7
v -3 0.7 1.1
v 3 0.7 1.1
v -3 2.7 1.7
v 3 2.7 1.7
v -3 2.7 1.1
v 3 2.7 1.1
v -3 4.7 1.7
v 3 4.7 1.7
v -3 4.7 1.1
v 3 4.7 1.1
v -3 6.7 1.7
v 3 6.7 1.7
v -3 6.7 1.1
v 3 6.7 1.1
v -3 8.7 1.7
v 3 8.7 1.7
v -3 8.7 1.1
v 3 8.7 1.1
v -3 10.7 1.7
v 3 10.7 1.7
v -3 10.7 1.1
v 3 10.7 1.1
v -3 12.7 1.7
v 3 12.7 1.7
v -3 12.7 1.1
v 3 12.7 1.1
v -3 14.7 1.7
v 3 14.7 1.7
v -3 14.7 1.1
v 3 14.7 1.1
v -4 15 0.4
v -3 15 0.4
v 3 15 0.4
v 4 15 0.4
v -4 15 -2.4
v -3 15 -2.4
v 3 15 -2.4
v 4 15 -2.4
v -3 1.3 1.7
v 3 1.3 1.7
v -3 1.3 1.1
v 3 1.3 1.1
v -3 3.3 1.7
v 3 3.3 1.7
v -3 3.3 1.1
v 3 3.3 1.1
v -3 5.3 1.7
v 3 5.3 1.7
v -3 5.3 1.1
v 3 5.3 1.1
v -3 7.3 1.7
v 3 7.3 1.7
v -3 7.3 1.1
v 3 7.3 1.1
v -3 9.3 1.7
v 3 9.3 1.7
v -3 9.3 1.1
v 3 9.3 1.1
v -3 11.3 1.7
v 3 11.3 1.7
v -3 11.3 1.1
v 3 11.3 1.1
v -3 13.3 1.7
v 3 13.3 1.7
v -3 13.3 1.1
v 3 13.3 1.1
v -3 15.3 1.7
v 3 15.3 1.7
v -3 15.3 1.1
v 3 15.3 1.1
v -3.8 16 2.4
v -3 16 2.4
v 3 16 2.4
v 3.8 16 2.4
v -3.7 16 2.3
v -3.1 16 2.3
v -4 16 2.2
v -3.8 16 2.2
v 3 16 2.2
v 3.7 16 2.2
v 3.8 16 2.2
v 4 16 2.2
v -3.9 16 2.1
v -3.7 16 2.1
v 3.7 16 2.1
v 4 16 2.1
v -4 16 -2.4
v -3.9 16 -2.4
v -3.1 16 -2.4
v -3 16 -2.4
v 3 16 -2.4
v 4 16 -2.4

# faces
f 4/1/1 3/1/1 2/1/1
f 6/2/1 2/2/1 1/2/1
f 6/1/1 5/1/1 4/1/1
f 6/1/1 4/1/1 2/1/1
f 7/1/1 5/1/1 6/1/1
f 8/2/1 6/2/1 1/2/1
f 8/2/1 7/2/1 6/2/1
f 9/2/1 7/2/1 8/2/1
f 12/2/1 11/2/1 10/2/1
f 13/2/1 11/2/1 12/2/1
f 17/1/1 16/1/1 15/1/1
f 18/1/1 16/1/1 17/1/1
f 19/1/1 17/1/1 15/1/1
f 20/1/1 16/1/1 18/1/1
f 21/1/1 19/1/1 15/1/1
f 21/1/1 20/1/1 19/1/1
f 22/1/1 16/1/1 20/1/1
f 22/1/1 20/1/1 21/1/1
f 23/1/1 21/1/1 15/1/1
f 24/1/1 16/1/1 22/1/1
f 25/1/1 23/1/1 15/1/1
f 25/1/1 24/1/1 23/1/1
f 26/1/1 16/1/1 24/1/1
f 26/1/1 24/1/1 25/1/1
f 27/1/1 25/1/1 15/1/1
f 28/1/1 16/1/1 26/1/1
f 29/1/1 27/1/1 15/1/1
f 29/1/1 28/1/1 27/1/1
f 30/1/1 16/1/1 28/1/1
f 30/1/1 28/1/1 29/1/1
f 31/1/1 29/1/1 15/1/1
f 32/1/1 16/1/1 30/1/1
f 33/1/1 31/1/1 15/1/1
f 33/1/1 32/1/1 31/1/1
f 34/1/1 16/1/1 32/1/1
f 34/1/1 32/1/1 33/1/1
f 35/1/1 33/1/1 15/1/1
f 36/1/1 16/1/1 34/1/1
f 37/1/1 35/1/1 15/1/1
f 37/1/1 36/1/1 35/1/1
f 38/1/1 16/1/1 36/1/1
f 38/1/1 36/1/1 37/1/1
f 39/1/1 37/1/1 15/1/1
f 40/1/1 16/1/1 38/1/1
f 41/1/1 39/1/1 15/1/1
f 41/1/1 40/1/1 39/1/1
f 42/1/1 16/1/1 40/1/1
f 42/1/1 40/1/1 41/1/1
f 43/1/1 41/1/1 15/1/1
f 44/1/1 16/1/1 42/1/1
f 45/1/1 43/1/1 15/1/1
f 45/1/1 44/1/1 43/1/1
f 46/1/1 16/1/1 44/1/1
f 46/1/1 44/1/1 45/1/1
f 47/1/1 16/1/1 46/1/1
f 49/1/1 45/1/1 15/1/1
f 50/1/1 48/1/1 47/1/1
f 50/1/1 47/1/1 46/1/1
f 51/2/1 15/2/1 14/2/1
f 52/1/1 50/1/1 49/1/1
f 52/2/1 15/2/1 51/2/1
f 52/1/1 49/1/1 15/1/1
f 53/1/1 48/1/1 50/1/1
f 53/1/1 50/1/1 52/1/1
f 54/1/2 55/1/2 56/1/2
f 56/1/2 55/1/2 57/1/2
f 57/1/2 55/1/2 58/1/2
f 58/1/2 55/1/2 59/1/2
f 57/1/2 58/1/2 60/1/2
f 59/1/2 55/1/2 61/1/2
f 57/1/2 60/1/2 62/1/2
f 60/1/2 61/1/2 62/1/2
f 61/1/2 55/1/2 63/1/2
f 62/1/2 61/1/2 63/1/2
f 57/1/2 62/1/2 64/1/2
f 63/1/2 55/1/2 65/1/2
f 57/1/2 64/1/2 66/1/2
f 64/1/2 65/1/2 66/1/2
f 65/1/2 55/1/2 67/1/2
f 66/1/2 65/1/2 67/1/2
f 57/1/2 66/1/2 68/1/2
f 67/1/2 55/1/2 69/1/2
f 57/1/2 68/1/2 70/1/2
f 68/1/2 69/1/2 70/1/2
f 69/1/2 55/1/2 71/1/2
f 70/1/2 69/1/2 71/1/2
f 57/1/2 70/1/2 72/1/2
f 71/1/2 55/1/2 73/1/2
f 57/1/2 72/1/2 74/1/2
f 72/1/2 73/1/2 74/1/2
f 73/1/2 55/1/2 75/1/2
f 74/1/2 73/1/2 75/1/2
f 57/1/2 74/1/2 76/1/2
f 75/1/2 55/1/2 77/1/2
f 57/1/2 76/1/2 78/1/2
f 76/1/2 77/1/2 78/1/2
f 77/1/2 55/1/2 79/1/2
f 78/1/2 77/1/2 79/1/2
f 57/1/2 78/1/2 80/1/2
f 79/1/2 55/1/2 81/1/2
f 57/1/2 80/1/2 82/1/2
f 80/1/2 81/1/2 82/1/2
f 81/1/2 55/1/2 83/1/2
f 82/1/2 81/1/2 83/1/2
f 57/1/2 82/1/2 84/1/2
f 83/1/2 55/1/2 85/1/2
f 57/1/2 84/1/2 86/1/2
f 84/1/2 85/1/2 86/1/2
f 85/1/2 55/1/2 87/1/2
f 86/1/2 85/1/2 87/1/2
f 87/1/2 55/1/2 88/1/2
f 57/1/2 86/1/2 90/1/2
f 88/1/2 89/1/2 91/1/2
f 87/1/2 88/1/2 91/1/2
f 56/2/2 57/2/2 92/2/2
f 90/1/2 91/1/2 92/1/2
f 57/1/2 90/1/2 92/1/2
f 91/1/2 89/1/2 93/1/2
f 92/1/2 91/1/2 93/1/2
f 56/2/2 92/2/2 94/2/2
f 92/2/2 93/2/2 94/2/2
f 94/2/2 93/2/2 95/2/2
f 96/2/2 97/2/2 98/2/2
f 98/2/2 97/2/2 99/2/2
f 101/1/2 102/1/2 103/1/2
f 100/2/2 101/2/2 105/2/2
f 103/1/2 104/1/2 106/1/2
f 105/2/2 101/2/2 106/2/2
f 101/1/2 103/1/2 106/1/2
f 106/1/2 104/1/2 107/1/2
f 110/2/3 109/2/3 108/2/3
f 111/2/3 109/2/3 110/2/3
f 112/1/3 111/1/3 110/1/3
f 113/2/3 109/2/3 111/2/3
f 113/1/3 111/1/3 112/1/3
f 114/1/3 112/1/3 110/1/3
f 115/2/3 113/2/3 112/2/3
f 115/1/3 112/1/3 114/1/3
f 116/2/3 109/2/3 113/2/3
f 116/2/3 113/2/3 115/2/3
f 119/2/3 118/2/3 117/2/3
f 120/2/3 118/2/3 119/2/3
f 121/1/3 120/1/3 119/1/3
f 122/2/3 118/2/3 120/2/3
f 122/1/3 120/1/3 121/1/3
f 123/2/3 122/2/3 121/2/3
f 124/2/3 118/2/3 122/2/3
f 124/2/3 122/2/3 123/2/3
f 127/2/3 126/2/3 125/2/3
f 128/2/3 126/2/3 127/2/3
f 131/2/3 130/2/3 129/2/3
f 132/2/3 130/2/3 131/2/3
f 149/1/3 134/1/3 133/1/3
f 150/1/3 134/1/3 149/1/3
f 151/1/3 136/1/3 135/1/3
f 152/1/3 136/1/3 151/1/3
f 153/1/3 138/1/3 137/1/3
f 154/1/3 138/1/3 153/1/3
f 155/1/3 140/1/3 139/1/3
f 156/1/3 140/1/3 155/1/3
f 157/1/3 142/1/3 141/1/3
f 158/1/3 142/1/3 157/1/3
f 159/1/3 144/1/3 143/1/3
f 160/1/3 144/1/3 159/1/3
f 161/1/3 146/1/3 145/1/3
f 162/1/3 146/1/3 161/1/3
f 163/1/3 148/1/3 147/1/3
f 164/1/3 148/1/3 163/1/3
f 165/1/4 166/1/4 181/1/4
f 181/1/4 166/1/4 182/1/4
f 167/1/4 168/1/4 183/1/4
f 183/1/4 168/1/4 184/1/4
f 169/1/4 170/1/4 185/1/4
f 185/1/4 170/1/4 186/1/4
f 171/1/4 172/1/4 187/1/4
f 187/1/4 172/1/4 188/1/4
f 173/1/4 174/1/4 189/1/4
f 189/1/4 174/1/4 190/1/4
f 175/1/4 176/1/4 191/1/4
f 191/1/4 176/1/4 192/1/4
f 177/1/4 178/1/4 193/1/4
f 193/1/4 178/1/4 194/1/4
f 179/1/4 180/1/4 195/1/4
f 195/1/4 180/1/4 196/1/4
f 197/1/4 198/1/4 199/1/4
f 199/1/4 198/1/4 200/1/4
f 201/1/4 202/1/4 203/1/4
f 203/1/4 202/1/4 204/1/4
f 205/1/4 206/1/4 208/1/4
f 206/2/4 207/2/4 208/2/4
f 208/2/4 207/2/4 209/2/4
f 205/1/4 208/1/4 210/1/4
f 208/1/4 209/1/4 210/1/4
f 210/1/4 209/1/4 211/1/4
f 205/1/4 210/1/4 212/1/4
f 210/2/4 211/2/4 213/2/4
f 212/1/4 210/1/4 213/1/4
f 213/2/4 211/2/4 214/2/4
f 215/1/4 216/1/4 217/1/4
f 217/1/4 216/1/4 218/1/4
f 227/2/5 220/2/5 219/2/5
f 228/2/5 223/2/5 222/2/5
f 229/1/5 224/1/5 223/1/5
f 229/2/5 223/2/5 228/2/5
f 230/2/5 225/2/5 224/2/5
f 232/2/5 227/2/5 226/2/5
f 233/1/5 221/1/5 220/1/5
f 233/2/5 227/2/5 232/2/5
f 233/2/5 220/2/5 227/2/5
f 234/1/5 224/1/5 229/1/5
f 234/2/5 231/2/5 230/2/5
f 234/2/5 230/2/5 224/2/5
f 234/1/5 229/1/5 228/1/5
f 235/2/5 231/2/5 234/2/5
f 236/1/5 233/1/5 232/1/5
f 237/1/5 221/1/5 233/1/5
f 237/1/5 233/1/5 236/1/5
f 238/1/5 234/1/5 228/1/5
f 238/1/5 235/1/5 234/1/5
f 239/1/5 235/1/5 238/1/5
f 242/1/5 241/1/5 240/1/5
f 243/1/5 241/1/5 242/1/5
f 246/1/5 245/1/5 244/1/5
f 247/1/5 245/1/5 246/1/5
f 250/1/5 249/1/5 248/1/5
f 251/1/5 249/1/5 250/1/5
f 254/1/5 253/1/5 252/1/5
f 255/1/5 253/1/5 254/1/5
f 258/1/5 257/1/5 256/1/5
f 259/1/5 257/1/5 258/1/5
f 262/1/5 261/1/5 260/1/5
f 263/1/5 261/1/5 262/1/5
f 266/1/5 265/1/5 264/1/5
f 267/1/5 265/1/5 266/1/5
f 270/1/5 269/1/5 268/1/5
f 271/1/5 269/1/5 270/1/5
f 276/1/5 273/1/5 272/1/5
f 277/1/5 273/1/5 276/1/5
f 278/1/5 275/1/5 274/1/5
f 279/1/5 275/1/5 278/1/5
f 280/1/6 281/1/6 282/1/6
f 282/1/6 281/1/6 283/1/6
f 284/1/6 285/1/6 286/1/6
f 286/1/6 285/1/6 287/1/6
f 288/1/6 289/1/6 290/1/6
f 290/1/6 289/1/6 291/1/6
f 292/1/6 293/1/6 294/1/6
f 294/1/6 293/1/6 295/1/6
f 296/1/6 297/1/6 298/1/6
f 298/1/6 297/1/6 299/1/6
f 300/1/6 301/1/6 302/1/6
f 302/1/6 301/1/6 303/1/6
f 304/1/6 305/1/6 306/1/6
f 306/1/6 305/1/6 307/1/6
f 308/1/6 309/1/6 310/1/6
f 310/1/6 309/1/6 311/1/6
f 312/2/6 313/2/6 316/2/6
f 316/2/6 313/2/6 317/2/6
f 312/2/6 316/2/6 319/2/6
f 314/2/6 315/2/6 320/2/6
f 320/2/6 315/2/6 321/2/6
f 321/2/6 315/2/6 322/2/6
f 318/2/6 319/2/6 324/2/6
f 316/1/6 317/1/6 325/1/6
f 324/2/6 319/2/6 325/2/6
f 319/2/6 316/2/6 325/2/6
f 322/2/6 323/2/6 326/2/6
f 321/2/6 322/2/6 326/2/6
f 320/1/6 321/1/6 326/1/6
f 326/2/6 323/2/6 327/2/6
f 318/2/6 324/2/6 328/2/6
f 324/1/6 325/1/6 329/1/6
f 328/2/6 324/2/6 329/2/6
f 325/1/6 317/1/6 330/1/6
f 329/1/6 325/1/6 330/1/6
f 317/2/6 313/2/6 330/2/6
f 330/2/6 313/2/6 331/2/6
f 326/1/6 327/1/6 332/1/6
f 320/1/6 326/1/6 332/1/6
f 332/1/6 327/1/6 333/1/6
